<svg width="18" height="18" viewBox="0 0 18 18" fill="none" xmlns="http://www.w3.org/2000/svg">
<g clip-path="url(#clip0_515_3112)">
<path d="M17.5263 13.2632H16.5789V4.26316C16.5789 4.20632 16.5695 4.14947 16.5505 4.09737L15.1295 0.307895C15.0584 0.123158 14.8832 0 14.6842 0H3.31579C3.11684 0 2.94158 0.123158 2.87053 0.307895L1.44947 4.09737C1.43053 4.14947 1.42105 4.20632 1.42105 4.26316V13.2632H0.473684C0.213158 13.2632 0 13.4763 0 13.7368V15.6316C0 15.8921 0.213158 16.1053 0.473684 16.1053H1.42105V17.5263C1.42105 17.7868 1.63421 18 1.89474 18H4.73684C4.99737 18 5.21053 17.7868 5.21053 17.5263V16.1053H12.7895V17.5263C12.7895 17.7868 13.0026 18 13.2632 18H16.1053C16.3658 18 16.5789 17.7868 16.5789 17.5263V16.1053H17.5263C17.7868 16.1053 18 15.8921 18 15.6316V13.7368C18 13.4763 17.7868 13.2632 17.5263 13.2632ZM10.8947 0.947368H14.3574L15.4232 3.78947H10.8947V0.947368ZM8.05263 0.947368H9.94737V3.78947H8.05263V0.947368ZM8.05263 4.73684H9.94737V5.97316L9.15158 5.70789C9.09947 5.69368 9.05211 5.68421 9 5.68421C8.9479 5.68421 8.90053 5.69368 8.84842 5.70789L8.05263 5.97316V4.73684ZM3.64263 0.947368H7.10526V3.78947H2.57684L3.64263 0.947368ZM2.36842 4.73684H7.10526V6.63158C7.10526 6.94895 7.42737 7.18105 7.73053 7.08158L9 6.65526C9 6.65526 10.2647 7.08158 10.2695 7.08158C10.5679 7.18105 10.8947 6.94421 10.8947 6.63158V4.73684H15.6316V13.2632H2.36842V4.73684ZM4.26316 17.0526H2.36842V16.1053H4.26316V17.0526ZM15.6316 17.0526H13.7368V16.1053H15.6316V17.0526ZM17.0526 15.1579H0.947368V14.2105H17.0526V15.1579Z" fill="black"/>
<path d="M5.68385 9.47363H3.78911C3.52859 9.47363 3.31543 9.68679 3.31543 9.94732C3.31543 10.2078 3.52859 10.421 3.78911 10.421H5.68385C5.94438 10.421 6.15753 10.2078 6.15753 9.94732C6.15753 9.68679 5.94438 9.47363 5.68385 9.47363Z" fill="black"/>
<path d="M5.68385 11.3684H3.78911C3.52859 11.3684 3.31543 11.5816 3.31543 11.8421C3.31543 12.1026 3.52859 12.3158 3.78911 12.3158H5.68385C5.94438 12.3158 6.15753 12.1026 6.15753 11.8421C6.15753 11.5816 5.94438 11.3684 5.68385 11.3684Z" fill="black"/>
<path d="M9.81046 9.13733C9.62572 8.9526 9.3273 8.9526 9.14256 9.13733L8.19519 10.0847C8.01046 10.2694 8.01046 10.5679 8.19519 10.7526C8.37993 10.9373 8.67835 10.9373 8.86309 10.7526L9.00046 10.6152V11.8421C9.00046 12.1026 9.21361 12.3158 9.47414 12.3158C9.73467 12.3158 9.94783 12.1026 9.94783 11.8421V10.6152L10.0852 10.7526C10.2652 10.9326 10.5684 10.9373 10.7531 10.7526C10.9378 10.5679 10.9378 10.2694 10.7531 10.0847L9.80572 9.13733H9.81046Z" fill="black"/>
<path d="M13.5995 9.13733C13.4148 8.9526 13.1164 8.9526 12.9316 9.13733L11.9843 10.0847C11.7995 10.2694 11.7995 10.5679 11.9843 10.7526C12.169 10.9373 12.4674 10.9373 12.6522 10.7526L12.7895 10.6152V11.8421C12.7895 12.1026 13.0027 12.3158 13.2632 12.3158C13.5237 12.3158 13.7369 12.1026 13.7369 11.8421V10.6152L13.8743 10.7526C14.0543 10.9326 14.3574 10.9373 14.5422 10.7526C14.7269 10.5679 14.7269 10.2694 14.5422 10.0847L13.5948 9.13733H13.5995Z" fill="black"/>
</g>
<defs>
<clipPath id="clip0_515_3112">
<rect width="18" height="18" fill="white"/>
</clipPath>
</defs>
</svg>
